<?xml version="1.0" encoding="UTF-8"?>
<svg id="Layer_1" xmlns="http://www.w3.org/2000/svg" version="1.1" viewBox="0 0 720 720">
  <!-- Generator: Adobe Illustrator 29.1.0, SVG Export Plug-In . SVG Version: 2.1.0 Build 142)  -->
  <defs>
    <style>
      .st0 {
        fill: #fff;
      }
    </style>
  </defs>
  <path class="st0" d="M164.14,323.73h-58.03c-8.01,0-14.51,6.49-14.51,14.51v43.52c0,8.01,6.49,14.51,14.51,14.51h58.03c8.01,0,14.51-6.5,14.51-14.51v-43.52c0-8.01-6.5-14.51-14.51-14.51ZM164.14,381.76h-58.03v-43.52h58.03v43.52Z"/>
  <path class="st0" d="M483.32,323.73h-58.03c-8.01,0-14.51,6.49-14.51,14.51v43.52c0,8.01,6.49,14.51,14.51,14.51h58.03c8.01,0,14.51-6.5,14.51-14.51v-43.52c0-8.01-6.5-14.51-14.51-14.51ZM483.32,381.76h-58.03v-43.52h58.03v43.52Z"/>
  <polygon class="st0" points="628.4 323.73 628.4 396.27 607.93 396.27 555.86 344.2 555.86 396.27 541.35 396.27 541.35 323.73 555.86 323.73 613.89 381.76 613.89 323.73 628.4 323.73"/>
  <path class="st0" d="M280.23,367.25h14.45c8.01,0,14.51-6.5,14.51-14.51v-14.51c0-8.01-6.49-14.51-14.51-14.51h-72.54v72.54h14.51v-29.02h23.06l29.01,29.02h20.52l-29.01-29.02ZM236.65,352.75v-14.51h58.03v14.51h-58.03Z"/>
  <rect class="st0" x="352.75" y="323.73" width="14.51" height="72.54"/>
</svg>