<?xml version="1.0" encoding="UTF-8"?>
<svg id="Layer_1" xmlns="http://www.w3.org/2000/svg" version="1.1" viewBox="0 0 720 720">
  <!-- Generator: Adobe Illustrator 29.1.0, SVG Export Plug-In . SVG Version: 2.1.0 Build 142)  -->
  <defs>
    <style>
      .st0 {
        fill: #fff;
      }
    </style>
  </defs>
  <path class="st0" d="M509.98,271.05c-59.66-15.92-100.74-78.41-161.09-91.47-3.26-.71-6.54-1.31-9.87-1.82-8.05-1.23-16.28-1.87-24.66-1.87-95.33,0-172.6,82.43-172.6,184.11s77.28,184.1,172.6,184.1c8.37,0,16.6-.63,24.66-1.86,3.32-.51,6.61-1.12,9.87-1.82,60.35-13.07,101.43-75.56,161.09-91.48,39.31-10.48,68.26-46.33,68.26-88.95s-28.95-78.47-68.26-88.95ZM348.88,498.08c-76.26,0-138.08-61.82-138.08-138.08s61.82-138.08,138.08-138.08,138.08,61.82,138.08,138.08-61.82,138.08-138.08,138.08Z"/>
</svg>