<?xml version="1.0" encoding="UTF-8"?>
<svg id="Layer_2" xmlns="http://www.w3.org/2000/svg" xmlns:xlink="http://www.w3.org/1999/xlink" version="1.1" viewBox="0 0 720 720">
  <!-- Generator: Adobe Illustrator 29.1.0, SVG Export Plug-In . SVG Version: 2.1.0 Build 142)  -->
  <defs>
    <style>
      .st0 {
        fill: url(#linear-gradient);
      }

      .st1 {
        fill: #fff;
      }
    </style>
    <linearGradient id="linear-gradient" x1="217.91" y1="360.17" x2="77.87" y2="360.17" gradientUnits="userSpaceOnUse">
      <stop offset="0" stop-color="#e0ebff"/>
      <stop offset="1" stop-color="#0168ff"/>
    </linearGradient>
  </defs>
  <g>
    <path class="st1" d="M305.43,333.91h-42.01c-5.8,0-10.5,4.7-10.5,10.5v31.51c0,5.8,4.7,10.5,10.5,10.5h42.01c5.8,0,10.5-4.7,10.5-10.5v-31.51c0-5.8-4.7-10.5-10.5-10.5ZM305.43,375.92h-42.01v-31.51h42.01v31.51Z"/>
    <path class="st1" d="M536.48,333.91h-42.01c-5.8,0-10.5,4.7-10.5,10.5v31.51c0,5.8,4.7,10.5,10.5,10.5h42.01c5.8,0,10.5-4.7,10.5-10.5v-31.51c0-5.8-4.7-10.5-10.5-10.5ZM536.48,375.92h-42.01v-31.51h42.01v31.51Z"/>
    <polygon class="st1" points="641.51 333.91 641.51 386.43 626.69 386.43 588.99 348.73 588.99 386.43 578.49 386.43 578.49 333.91 588.99 333.91 631 375.92 631 333.91 641.51 333.91"/>
    <path class="st1" d="M389.47,365.42h10.46c5.8,0,10.5-4.7,10.5-10.5v-10.5c0-5.8-4.7-10.5-10.5-10.5h-52.51v52.51h10.5v-21h16.69l21,21h14.85l-21-21ZM357.92,354.92v-10.5h42.01v10.5h-42.01Z"/>
    <rect class="st1" x="441.96" y="333.91" width="10.5" height="52.51"/>
  </g>
  <path class="st0" d="M196.01,331.63c-19.14-5.11-32.32-25.16-51.69-29.35-1.05-.23-2.1-.42-3.17-.58-2.58-.4-5.22-.6-7.91-.6-30.59,0-55.38,26.45-55.38,59.07s24.79,59.07,55.38,59.07c2.69,0,5.33-.2,7.91-.6,1.07-.16,2.12-.36,3.17-.58,19.36-4.19,32.54-24.24,51.69-29.35,12.61-3.36,21.9-14.87,21.9-28.54s-9.29-25.18-21.9-28.54ZM144.32,404.47c-24.47,0-44.3-19.83-44.3-44.3s19.83-44.3,44.3-44.3,44.3,19.83,44.3,44.3-19.84,44.3-44.3,44.3Z"/>
</svg>