<?xml version="1.0" encoding="UTF-8"?>
<svg id="Layer_1" xmlns="http://www.w3.org/2000/svg" version="1.1" viewBox="0 0 720 720">
  <!-- Generator: Adobe Illustrator 29.1.0, SVG Export Plug-In . SVG Version: 2.1.0 Build 142)  -->
  <defs>
    <style>
      .st0 {
        fill: #fff;
      }

      .st1 {
        fill: #0168ff;
      }
    </style>
  </defs>
  <g>
    <path class="st0" d="M152.58,482.66h-61.46c-8.49,0-15.37,6.88-15.37,15.37v46.09c0,8.49,6.88,15.36,15.36,15.36h61.46c8.49,0,15.36-6.88,15.36-15.36v-46.09c0-8.49-6.88-15.36-15.36-15.36ZM152.58,544.12h-61.46v-46.09h61.46v46.09Z"/>
    <path class="st0" d="M490.6,482.66h-61.46c-8.49,0-15.36,6.88-15.36,15.36v46.09c0,8.48,6.88,15.36,15.36,15.36h61.46c8.48,0,15.36-6.88,15.36-15.36v-46.09c0-8.49-6.88-15.36-15.36-15.36ZM490.6,544.12h-61.46v-46.09h61.46v46.09Z"/>
    <polygon class="st0" points="644.24 482.66 644.24 559.48 622.57 559.48 567.42 504.34 567.42 559.48 552.06 559.48 552.06 482.66 567.42 482.66 628.88 544.12 628.88 482.66 644.24 482.66"/>
    <path class="st0" d="M275.52,528.76h15.31c8.49,0,15.36-6.88,15.36-15.36v-15.36c0-8.49-6.88-15.36-15.36-15.36h-76.82v76.82h15.36v-30.73h24.42l30.73,30.73h21.73l-30.73-30.73ZM229.37,513.39v-15.36h61.46v15.36h-61.46Z"/>
    <rect class="st0" x="352.32" y="482.66" width="15.36" height="76.82"/>
  </g>
  <path class="st1" d="M460.3,224.16c-39.91-10.65-67.38-52.45-107.75-61.19-2.18-.47-4.38-.88-6.6-1.22-5.39-.82-10.89-1.25-16.49-1.25-63.76,0-115.45,55.13-115.45,123.15s51.69,123.14,115.45,123.14c5.6,0,11.11-.42,16.49-1.24,2.22-.34,4.42-.75,6.6-1.22,40.37-8.74,67.84-50.54,107.75-61.19,26.29-7.01,45.66-30.99,45.66-59.49s-19.37-52.49-45.66-59.5ZM352.55,376.02c-51.01,0-92.36-41.35-92.36-92.36s41.35-92.36,92.36-92.36,92.36,41.35,92.36,92.36-41.35,92.36-92.36,92.36Z"/>
</svg>